<?xml version="1.0" encoding="UTF-8"?>
<svg version="1.1" xmlns="http://www.w3.org/2000/svg" width="609" height="464">
<path d="M0 0 C200.97 0 401.94 0 609 0 C609 153.12 609 306.24 609 464 C408.03 464 207.06 464 0 464 C0 310.88 0 157.76 0 0 Z " fill="#C0C0C0" transform="translate(0,0)"/>
<path d="M0 0 C2.50087145 0.28529359 5.00050433 0.5780741 7.5 0.875 C8.19609375 0.95363281 8.8921875 1.03226563 9.609375 1.11328125 C10.30546875 1.19707031 11.0015625 1.28085937 11.71875 1.3671875 C12.34716797 1.44050293 12.97558594 1.51381836 13.62304688 1.58935547 C17.12230398 2.19389023 20.55493361 3.1387334 24 4 C24 11.26 24 18.52 24 26 C27.63 26.33 31.26 26.66 35 27 C35 30.96 35 34.92 35 39 C38.96 39.33 42.92 39.66 47 40 C47 43.96 47 47.92 47 52 C47.99225586 52.10812012 48.98451172 52.21624023 50.00683594 52.32763672 C62.36292628 53.70886346 74.61796385 55.58992203 86.89404297 57.54638672 C89.45491903 57.95333476 92.01648019 58.35573673 94.578125 58.7578125 C95.35206604 58.88278107 96.12600708 59.00774963 96.92340088 59.13650513 C102.43928292 60.02785025 102.43928292 60.02785025 108 60 C110.2591189 58.20432796 110.2591189 58.20432796 112.25 55.6875 C113.03117188 54.7696875 113.81234375 53.851875 114.6171875 52.90625 C115.40351563 51.9471875 116.18984375 50.988125 117 50 C117.72445312 49.1234375 118.44890625 48.246875 119.1953125 47.34375 C120.66657142 45.55081798 122.1312769 43.75249099 123.58984375 41.94921875 C126.79464941 38.02761701 130.07601345 34.1732142 133.37060547 30.3269043 C135.39923812 27.94714798 137.2625605 25.60615925 139 23 C142.10482706 23.47495052 145.20873101 23.95568748 148.3125 24.4375 C149.19357422 24.57220703 150.07464844 24.70691406 150.98242188 24.84570312 C152.25375977 25.04389648 152.25375977 25.04389648 153.55078125 25.24609375 C154.33106689 25.36654053 155.11135254 25.4869873 155.9152832 25.61108398 C158 26 158 26 161 27 C161.33 30.3 161.66 33.6 162 37 C165.63 37.66 169.26 38.32 173 39 C173 42.63 173 46.26 173 50 C175.57161458 50.22786458 178.14322917 50.45572917 180.71484375 50.68359375 C183 51 183 51 184 52 C184.4601125 55.32303475 184.70381212 58.65730818 185 62 C188.3 62.66 191.6 63.32 195 64 C195.85782268 68.58172474 196.25107836 73.10558576 196.46484375 77.75390625 C196.52124275 78.88959801 196.52124275 78.88959801 196.57878113 80.04823303 C196.70206038 82.55282407 196.82002235 85.05763058 196.9375 87.5625 C197.0224764 89.33187557 197.10760308 91.10124393 197.19287109 92.87060547 C197.3728444 96.62569701 197.54992038 100.38091224 197.72509766 104.13623047 C197.90862512 108.06772894 198.09590746 111.99901939 198.28662109 115.93017578 C198.5262618 120.87060745 198.76023966 125.81127827 198.99026489 130.75216675 C199.07838583 132.63108869 199.16806405 134.50993841 199.25949097 136.38870239 C199.55980232 142.59119273 199.80290145 148.79340121 200 155 C200.03530823 155.98776428 200.07061646 156.97552856 200.10699463 157.9932251 C200.20581954 161.01107498 200.27143763 164.02796838 200.328125 167.046875 C200.36148956 167.97488922 200.39485413 168.90290344 200.42922974 169.85903931 C200.4998056 176.30464412 200.4998056 176.30464412 197.94580078 179.85791016 C195.625 181.625 195.625 181.625 193.1640625 182.8515625 C190.55391414 184.23673148 190.19396678 185.37327309 189 188 C187.515 188.99 187.515 188.99 186 190 C185.79403352 192.89196313 185.79403352 192.89196313 185.9375 196.1875 C185.65941229 202.33256008 185.65941229 202.33256008 182.75390625 205.2734375 C180 207.0625 180 207.0625 177.25 208.53515625 C174.81973516 209.74419399 174.81973516 209.74419399 174.56616211 211.94140625 C173.84451083 214.56536639 172.99118463 215.02284095 170.69140625 216.40234375 C170.02689453 216.81806641 169.36238281 217.23378906 168.67773438 217.66210938 C167.27216974 218.50960126 165.8659233 219.35596344 164.45898438 220.20117188 C160.22044635 222.85589995 158.86671356 224.32223542 157 229 C154.05042246 231.44200023 150.6892097 233.288697 147.41015625 235.25 C143.23999825 237.85126815 141.72837424 239.31401985 140 244 C137.25 246.23828125 137.25 246.23828125 134 248.3125 C132.9275 249.00988281 131.855 249.70726562 130.75 250.42578125 C128 252 128 252 126 252 C126 274.44 126 296.88 126 320 C121.05 319.67 116.1 319.34 111 319 C92.02331077 316.4363637 92.02331077 316.4363637 74 319 C74 323.29 74 327.58 74 332 C85.55 332.66 97.1 333.32 109 334 C108.67 334.66 108.34 335.32 108 336 C110.64 336.33 113.28 336.66 116 337 C113.07768114 340.05515154 111.83397283 340.96054914 107.44921875 341.16796875 C105.86203711 341.18301313 104.27475245 341.18874247 102.6875 341.1875 C101.83188477 341.18814453 100.97626953 341.18878906 100.09472656 341.18945312 C87.37239472 341.09134892 74.67737494 339.99264743 62 339 C62 337.02 62 335.04 62 333 C57.05 333.33 52.1 333.66 47 334 C47 338.29 47 342.58 47 347 C48.58425781 347.06058594 50.16851562 347.12117188 51.80078125 347.18359375 C64.87342813 347.69082347 77.93796205 348.26827678 91 349 C90 351 90 351 88.0546875 352.14453125 C83.66833241 353.37293504 79.63905894 352.98544852 75.125 352.6875 C73.16669813 352.57756315 71.2083635 352.46820849 69.25 352.359375 C67.72439453 352.26946289 67.72439453 352.26946289 66.16796875 352.17773438 C60.82265759 351.87784331 55.47395002 351.66110709 50.125 351.4375 C48.16925898 351.35313898 46.21352868 351.26852868 44.2578125 351.18359375 C42.85273438 351.12300781 41.44765625 351.06242187 40 351 C40 346.05 40 341.1 40 336 C37.69 336.33 35.38 336.66 33 337 C30.23076836 336.96206532 27.51697188 336.86996716 24.7578125 336.6953125 C23.99000458 336.65187714 23.22219666 336.60844177 22.43112183 336.56369019 C20.81570741 336.47101105 19.20047981 336.37502196 17.58544922 336.27587891 C15.13936437 336.12588085 12.69287075 335.98585612 10.24609375 335.84765625 C8.66663253 335.75579333 7.08720415 335.66336376 5.5078125 335.5703125 C4.7887674 335.52858917 4.06972229 335.48686584 3.32888794 335.44387817 C-1.8038843 335.12601196 -6.89214762 334.59770735 -12 334 C-12 332.02 -12 330.04 -12 328 C-13.64630328 328.14042877 -15.29204179 328.28749329 -16.9375 328.4375 C-17.85402344 328.51871094 -18.77054688 328.59992188 -19.71484375 328.68359375 C-21.96159732 328.76044976 -21.96159732 328.76044976 -23 330 C-23.23481693 332.18292774 -23.41363323 334.37203174 -23.5625 336.5625 C-23.64628906 337.76003906 -23.73007813 338.95757812 -23.81640625 340.19140625 C-23.87699219 341.11824219 -23.93757813 342.04507812 -24 343 C-23.41694092 342.98839844 -22.83388184 342.97679687 -22.2331543 342.96484375 C-13.06733679 342.8683161 -3.9564752 343.44655131 5.1875 344 C6.82355035 344.09664843 8.45961798 344.19300478 10.09570312 344.2890625 C14.06400917 344.52267793 18.03206103 344.76023382 22 345 C18.72953882 348.88871929 18.72953882 348.88871929 15.52075195 349.37817383 C14.60253662 349.32169678 13.68432129 349.26521973 12.73828125 349.20703125 C11.70928711 349.15417969 10.68029297 349.10132813 9.62011719 349.046875 C7.98284668 348.93085937 7.98284668 348.93085937 6.3125 348.8125 C5.19649414 348.74933594 4.08048828 348.68617188 2.93066406 348.62109375 C0.67736771 348.49148223 -1.57543973 348.3530531 -3.82763672 348.20556641 C-6.63587883 348.02359474 -9.44321661 347.86828534 -12.25390625 347.73046875 C-24.06262735 347.13069603 -24.06262735 347.13069603 -29 346 C-29.24194367 334.33293872 -28.98264082 322.7135713 -28.3125 311.0625 C-28.25916504 309.84852539 -28.20583008 308.63455078 -28.15087891 307.38378906 C-27.69667825 300.37471435 -27.05100878 297.95433875 -22 293 C-21.3396612 289.17402074 -21.43713366 285.37353399 -21.5 281.5 C-21.67391296 270.78428611 -21.67391296 270.78428611 -18.51953125 267.11328125 C-17.27236328 266.06720703 -17.27236328 266.06720703 -16 265 C-15.19904976 262.35990852 -15.19904976 262.35990852 -15.1875 259.6875 C-15.125625 258.140625 -15.06375 256.59375 -15 255 C-19.62 254.67 -24.24 254.34 -29 254 C-29.1953125 244.8203125 -29.1953125 244.8203125 -29 242 C-28.34 241.34 -27.68 240.68 -27 240 C-30.3 239.34 -33.6 238.68 -37 238 C-37 235.03 -37 232.06 -37 229 C-37.67546875 229.01160156 -38.3509375 229.02320313 -39.046875 229.03515625 C-39.93890625 229.04417969 -40.8309375 229.05320312 -41.75 229.0625 C-42.63171875 229.07410156 -43.5134375 229.08570313 -44.421875 229.09765625 C-46.7818838 229.00826198 -48.74498524 228.66912821 -51 228 C-51 225.36 -51 222.72 -51 220 C-51.66 220 -52.32 220 -53 220 C-53 218.68 -53 217.36 -53 216 C-55.97 215.67 -58.94 215.34 -62 215 C-62.10250599 205.92252548 -62.00422878 197.03805905 -61 188 C-64.3 188 -67.6 188 -71 188 C-70.40287028 175.44062298 -69.73649416 162.88687315 -68.98731041 150.33559799 C-68.64127408 144.50382899 -68.31707838 138.67272747 -68.046875 132.83691406 C-65.83579554 85.69385814 -65.83579554 85.69385814 -53.00634766 65.47753906 C-49.90203018 60.48586492 -49.3056586 56.44445487 -49.12487793 50.628479 C-48.97292058 47.43002181 -48.15665509 45.08149613 -46.71484375 42.234375 C-46.04291992 40.87119141 -46.04291992 40.87119141 -45.35742188 39.48046875 C-44.88884766 38.57941406 -44.42027344 37.67835937 -43.9375 36.75 C-43.22883789 35.32880859 -43.22883789 35.32880859 -42.50585938 33.87890625 C-41.35461058 31.57640866 -40.18627801 29.28458844 -39 27 C-36.03 27.33 -33.06 27.66 -30 28 C-29.71125 27.0925 -29.4225 26.185 -29.125 25.25 C-28 22 -28 22 -26 18 C-23.03 18.33 -20.06 18.66 -17 19 C-16.71125 18.0925 -16.4225 17.185 -16.125 16.25 C-15.23468224 13.67797092 -14.28505587 11.38653234 -13 9 C-10.36 9 -7.72 9 -5 9 C-3.35 6.03 -1.7 3.06 0 0 Z " fill="#141414" transform="translate(240,52)"/>
<path d="M0 0 C1.44162059 0.12871802 2.88363526 0.25306617 4.32592773 0.37402344 C8.41782958 0.73082117 12.50002405 1.15242077 16.58300781 1.59912109 C19.15324322 1.8780652 21.72484171 2.14055795 24.296875 2.40234375 C25.92979338 2.57713867 27.56261036 2.75288411 29.1953125 2.9296875 C29.96497345 3.00686005 30.7346344 3.08403259 31.52761841 3.1635437 C33.36119021 3.37137626 35.18329333 3.67633845 37 4 C37.495 4.99 37.495 4.99 38 6 C37.33333333 7.33333333 36.66666667 8.66666667 36 10 C35.54935368 12.58532701 35.54935368 12.58532701 35.375 15.25 C35.25 16.83333333 35.125 18.41666667 35 20 C35.82177734 19.97389648 35.82177734 19.97389648 36.66015625 19.94726562 C45.82970438 19.79071236 54.84389127 20.93333855 63.9453125 21.93359375 C78.00509128 24.17536366 78.00509128 24.17536366 90.72265625 19.58203125 C92.40790448 17.49479721 92.64294536 15.62280877 93 13 C96.02106753 13.14184833 99.04179097 13.28835667 102.0625 13.4375 C102.91005859 13.47681641 103.75761719 13.51613281 104.63085938 13.55664062 C109.4694525 13.79950437 114.24394252 14.04626205 119 15 C120.49282393 17.98564786 120.11916977 20.68983718 120.11352539 24.02001953 C120.11367142 24.74207581 120.11381744 25.46413208 120.1139679 26.20806885 C120.11327007 28.59968041 120.10548375 30.99121451 120.09765625 33.3828125 C120.09579161 35.03905189 120.09436792 36.69529184 120.09336853 38.35153198 C120.08954699 42.71467608 120.07971978 47.077787 120.06866455 51.44091797 C120.05844264 55.89159699 120.05386924 60.34228137 120.04882812 64.79296875 C120.0380972 73.52866108 120.02102512 82.26432641 120 91 C118.97587509 90.93148331 117.95175018 90.86296661 116.89659119 90.79237366 C115.53644853 90.70150198 114.17630549 90.6106362 112.81616211 90.51977539 C112.1431179 90.47473122 111.4700737 90.42968704 110.77663422 90.38327789 C88.8579167 87.24928437 88.8579167 87.24928437 68 90 C68 94.29 68 98.58 68 103 C85.325 103.99 85.325 103.99 103 105 C102.67 105.66 102.34 106.32 102 107 C104.64 107.33 107.28 107.66 110 108 C107.07768114 111.05515154 105.83397283 111.96054914 101.44921875 112.16796875 C99.86203711 112.18301313 98.27475245 112.18874247 96.6875 112.1875 C95.83188477 112.18814453 94.97626953 112.18878906 94.09472656 112.18945312 C81.37239472 112.09134892 68.67737494 110.99264743 56 110 C56 108.02 56 106.04 56 104 C51.05 104.33 46.1 104.66 41 105 C41 109.29 41 113.58 41 118 C42.58425781 118.06058594 44.16851562 118.12117188 45.80078125 118.18359375 C58.87342813 118.69082347 71.93796205 119.26827678 85 120 C84 122 84 122 82.0546875 123.14453125 C77.66833241 124.37293504 73.63905894 123.98544852 69.125 123.6875 C67.16669813 123.57756315 65.2083635 123.46820849 63.25 123.359375 C62.23292969 123.29943359 61.21585937 123.23949219 60.16796875 123.17773438 C54.82265759 122.87784331 49.47395002 122.66110709 44.125 122.4375 C42.16925898 122.35313898 40.21352868 122.26852868 38.2578125 122.18359375 C36.85273438 122.12300781 35.44765625 122.06242187 34 122 C34 117.05 34 112.1 34 107 C30.535 107.495 30.535 107.495 27 108 C24.23076836 107.96206532 21.51697188 107.86996716 18.7578125 107.6953125 C17.99000458 107.65187714 17.22219666 107.60844177 16.43112183 107.56369019 C14.81570741 107.47101105 13.20047981 107.37502196 11.58544922 107.27587891 C9.13936437 107.12588085 6.69287075 106.98585612 4.24609375 106.84765625 C2.66663253 106.75579333 1.08720415 106.66336376 -0.4921875 106.5703125 C-1.2112326 106.52858917 -1.93027771 106.48686584 -2.67111206 106.44387817 C-7.8038843 106.12601196 -12.89214762 105.59770735 -18 105 C-18 103.02 -18 101.04 -18 99 C-19.64630328 99.14042877 -21.29204179 99.28749329 -22.9375 99.4375 C-23.85402344 99.51871094 -24.77054688 99.59992188 -25.71484375 99.68359375 C-27.96159732 99.76044976 -27.96159732 99.76044976 -29 101 C-29.23481693 103.18292774 -29.41363323 105.37203174 -29.5625 107.5625 C-29.68818359 109.35880859 -29.68818359 109.35880859 -29.81640625 111.19140625 C-29.87699219 112.11824219 -29.93757812 113.04507813 -30 114 C-29.41694092 113.98839844 -28.83388184 113.97679687 -28.2331543 113.96484375 C-19.06733679 113.8683161 -9.9564752 114.44655131 -0.8125 115 C0.82355035 115.09664843 2.45961798 115.19300478 4.09570312 115.2890625 C8.06400917 115.52267793 12.03206103 115.76023382 16 116 C12.72953882 119.88871929 12.72953882 119.88871929 9.52075195 120.37817383 C8.60253662 120.32169678 7.68432129 120.26521973 6.73828125 120.20703125 C5.70928711 120.15417969 4.68029297 120.10132813 3.62011719 120.046875 C2.52860352 119.96953125 1.43708984 119.8921875 0.3125 119.8125 C-0.80350586 119.74933594 -1.91951172 119.68617188 -3.06933594 119.62109375 C-5.32263229 119.49148223 -7.57543973 119.3530531 -9.82763672 119.20556641 C-12.63587883 119.02359474 -15.44321661 118.86828534 -18.25390625 118.73046875 C-30.06262735 118.13069603 -30.06262735 118.13069603 -35 117 C-35.24194367 105.33293872 -34.98264082 93.7135713 -34.3125 82.0625 C-34.25916504 80.84852539 -34.20583008 79.63455078 -34.15087891 78.38378906 C-33.69667825 71.37471435 -33.05100878 68.95433875 -28 64 C-27.3396612 60.17402074 -27.43713366 56.37353399 -27.5 52.5 C-27.67391296 41.78428611 -27.67391296 41.78428611 -24.51953125 38.11328125 C-23.68808594 37.41589844 -22.85664063 36.71851563 -22 36 C-21.19904976 33.35990852 -21.19904976 33.35990852 -21.1875 30.6875 C-21.0946875 28.3671875 -21.0946875 28.3671875 -21 26 C-25.29 25.67 -29.58 25.34 -34 25 C-29.62371471 18.95426836 -24.9688728 13.39479077 -19.8125 8 C-19.12091797 7.22527344 -18.42933594 6.45054687 -17.71679688 5.65234375 C-11.91704786 -0.36496219 -8.10929968 -0.96512464 0 0 Z " fill="#121111" transform="translate(246,281)"/>
<path d="M0 0 C2.29773192 0.27416119 4.5946241 0.55545124 6.890625 0.84375 C8.66953125 1.05837891 8.66953125 1.05837891 10.484375 1.27734375 C13.37062648 1.62648707 16.25592622 1.98204033 19.140625 2.34375 C19.140625 3.00375 19.140625 3.66375 19.140625 4.34375 C20.130625 4.01375 21.120625 3.68375 22.140625 3.34375 C24.94055719 3.07809378 27.74006035 2.89996847 30.546875 2.72265625 C33.37173285 2.49922363 33.37173285 2.49922363 36.140625 0.34375 C38.8918457 0.31445312 38.8918457 0.31445312 42.25390625 0.625 C44.13263428 0.78935547 44.13263428 0.78935547 46.04931641 0.95703125 C46.71626526 1.02035645 47.38321411 1.08368164 48.07037354 1.14892578 C50.15586588 1.34518427 52.24218224 1.52458785 54.32958984 1.69921875 C57.93129194 2.00210844 61.53138115 2.32047425 65.13110352 2.64599609 C67.36379481 2.84696064 69.59691694 3.04261564 71.83007812 3.23828125 C73.26044575 3.3668644 74.69078545 3.49575858 76.12109375 3.625 C77.39879639 3.73908203 78.67649902 3.85316406 79.99291992 3.97070312 C83.140625 4.34375 83.140625 4.34375 86.140625 5.34375 C86.140625 6.66375 86.140625 7.98375 86.140625 9.34375 C87.52894531 9.39982422 87.52894531 9.39982422 88.9453125 9.45703125 C102.41714147 10.08844302 115.75962946 11.70333964 129.140625 13.34375 C129.53869648 23.49457276 129.53869648 23.49457276 127.140625 27.34375 C124.390625 29.58203125 124.390625 29.58203125 121.140625 31.65625 C120.068125 32.35363281 118.995625 33.05101562 117.890625 33.76953125 C115.140625 35.34375 115.140625 35.34375 113.140625 35.34375 C112.810625 32.70375 112.480625 30.06375 112.140625 27.34375 C110.9340625 27.28316406 109.7275 27.22257812 108.484375 27.16015625 C106.86978376 27.07567182 105.25520086 26.99102789 103.640625 26.90625 C102.84914063 26.86693359 102.05765625 26.82761719 101.2421875 26.78710938 C96.16677059 26.51669782 91.17687055 26.0310358 86.140625 25.34375 C86.24503906 26.47876953 86.24503906 26.47876953 86.3515625 27.63671875 C86.140625 30.34375 86.140625 30.34375 84.7421875 32.14453125 C84.08992188 32.64339844 83.43765625 33.14226562 82.765625 33.65625 C82.13914062 34.16800781 81.51265625 34.67976563 80.8671875 35.20703125 C74.15039412 38.00729898 65.50705527 36.22251333 58.4140625 35.46875 C57.10352402 35.33557373 57.10352402 35.33557373 55.76651001 35.19970703 C53.01570777 34.91909407 50.26568334 34.63155242 47.515625 34.34375 C45.63416193 34.15057998 43.75265181 33.9578676 41.87109375 33.765625 C37.29371078 33.29694711 32.71701105 32.82206026 28.140625 32.34375 C28.08602727 30.78164839 28.04756399 29.21897911 28.015625 27.65625 C27.99242187 26.78613281 27.96921875 25.91601562 27.9453125 25.01953125 C28.1577474 22.10917306 28.93236818 19.98383871 30.140625 17.34375 C25.07352205 16.76627612 20.00558872 16.19695875 14.93676758 15.63476562 C13.21712308 15.44292508 11.49771364 15.24896399 9.77856445 15.05273438 C4.92847858 14.49988946 0.07788033 13.98962012 -4.78344727 13.54571533 C-6.58719532 13.37023014 -8.38618147 13.14706826 -10.18359375 12.91552734 C-14.31024208 12.56658282 -16.78137972 12.63738423 -20.29907227 14.94238281 C-22.79366098 17.15764876 -25.01046383 19.48274878 -27.234375 21.96875 C-28.00136719 22.77699219 -28.76835937 23.58523438 -29.55859375 24.41796875 C-32.76887319 27.82785106 -35.86624734 31.30858143 -38.8359375 34.9296875 C-39.50367188 35.72632813 -40.17140625 36.52296875 -40.859375 37.34375 C-41.189375 37.34375 -41.519375 37.34375 -41.859375 37.34375 C-42.86212824 31.63109519 -43.11904874 27.16404776 -39.7265625 22.26171875 C-37.39049317 19.66387411 -34.87485473 17.25092932 -32.35205078 14.8359375 C-29.98395219 12.46861355 -27.94921994 9.89785981 -25.859375 7.28125 C-24.53736508 5.62630743 -23.20569954 3.97897334 -21.859375 2.34375 C-21.22370605 1.53949585 -21.22370605 1.53949585 -20.57519531 0.71899414 C-15.754242 -3.14503972 -5.7605917 -0.60775386 0 0 Z " fill="#250000" transform="translate(252.859375,268.65625)"/>
<path d="M0 0 C3.39616487 0.47683572 6.79186868 0.95688069 10.1875 1.4375 C11.14720703 1.57220703 12.10691406 1.70691406 13.09570312 1.84570312 C14.49272461 2.04389648 14.49272461 2.04389648 15.91796875 2.24609375 C16.77156982 2.36654053 17.6251709 2.4869873 18.50463867 2.61108398 C21.01531514 3.00238695 23.50835736 3.50167147 26 4 C25.67 15.88 25.34 27.76 25 40 C28.96 40.33 32.92 40.66 37 41 C37.33 29.45 37.66 17.9 38 6 C41.196875 6.309375 44.39375 6.61875 47.6875 6.9375 C49.18543091 7.08046509 49.18543091 7.08046509 50.71362305 7.22631836 C51.91305542 7.34438843 51.91305542 7.34438843 53.13671875 7.46484375 C53.94842529 7.543396 54.76013184 7.62194824 55.59643555 7.70288086 C58.08295426 8.01025448 60.5432092 8.50864184 63 9 C63 24.84 63 40.68 63 57 C52.88200657 57 52.88200657 57 47.88525391 56.30981445 C46.21905502 56.08507195 46.21905502 56.08507195 44.51919556 55.85578918 C43.35012665 55.69326157 42.18105774 55.53073395 40.9765625 55.36328125 C38.46753172 55.02996748 35.95841448 54.69730404 33.44921875 54.36523438 C29.51769689 53.83881026 25.58684888 53.30833034 21.65771484 52.7644043 C17.8491437 52.24092109 14.03830676 51.73805575 10.2265625 51.23828125 C9.04534821 51.06968094 7.86413391 50.90108063 6.64712524 50.72737122 C5.55523895 50.58699936 4.46335266 50.4466275 3.33837891 50.30200195 C1.89683945 50.10547783 1.89683945 50.10547783 0.42617798 49.90498352 C-2.07774854 49.76109199 -2.07774854 49.76109199 -3.83364868 51.48112488 C-4.21854462 51.98235367 -4.60344055 52.48358246 -5 53 C-4.88056589 47.93192303 -4.75625789 42.86399597 -4.62768555 37.79614258 C-4.58472143 36.07677347 -4.54302463 34.35737215 -4.50268555 32.63793945 C-3.84823627 4.852124 -3.84823627 4.852124 0 0 Z " fill="#9C9C7A" transform="translate(227,123)"/>
<path d="M0 0 C0.86109375 0.12503906 1.7221875 0.25007812 2.609375 0.37890625 C3.60453125 0.54261719 4.5996875 0.70632812 5.625 0.875 C8.16642386 1.23090479 10.70809753 1.58502972 13.25 1.9375 C15.37530594 2.24791249 17.50041662 2.55967999 19.625 2.875 C20.52789857 14.56431188 20.73965457 26.15475496 20.625 37.875 C24.255 38.205 27.885 38.535 31.625 38.875 C31.625 27.985 31.625 17.095 31.625 5.875 C44 5.875 44 5.875 49.3125 6.875 C50.32699219 7.060625 51.34148437 7.24625 52.38671875 7.4375 C53.12535156 7.581875 53.86398437 7.72625 54.625 7.875 C55.52863196 23.22060702 55.7493417 38.50445265 55.625 53.875 C41.62409326 53.3714699 27.96797643 51.86515329 14.1184082 49.80541992 C11.63371861 49.43909811 9.14724161 49.08790544 6.66015625 48.73828125 C5.90920181 48.62172684 5.15824738 48.50517242 4.38453674 48.38508606 C0.49060806 47.84469966 -2.06999573 47.60122469 -5.375 49.875 C-6.365 50.37 -6.365 50.37 -7.375 50.875 C-7.70096578 42.43630082 -7.99774433 33.99710446 -8.25927734 25.55615234 C-8.33008632 23.3037097 -8.40494254 21.051384 -8.48681641 18.79931641 C-8.57426467 16.30367757 -8.63618903 13.80909933 -8.6875 11.3125 C-8.71714844 10.60109863 -8.74679687 9.88969727 -8.77734375 9.15673828 C-8.81651065 5.85937483 -8.55210529 4.12580011 -6.62890625 1.40234375 C-3.98637287 -0.38835045 -3.10323532 -0.4977886 0 0 Z " fill="#9D9D7A" transform="translate(366.375,143.125)"/>
<path d="M0 0 C3.56176681 0.09522064 7.12279625 -0.02184908 10.68359375 -0.12695312 C17.16448524 -0.226569 22.96270563 0.56718096 28 5 C29.32 4.34 30.64 3.68 32 3 C32 3.66 32 4.32 32 5 C32.66 5 33.32 5 34 5 C34.78688445 7.77723925 35.11949924 10.22610077 35.09765625 13.109375 C35.09443359 13.86347656 35.09121094 14.61757813 35.08789062 15.39453125 C35.07532227 16.56048828 35.07532227 16.56048828 35.0625 17.75 C35.05798828 18.54277344 35.05347656 19.33554687 35.04882812 20.15234375 C35.03708565 22.10159508 35.01915146 24.05080738 35 26 C23.05622789 25.59677603 11.20191589 24.71820491 -0.6875 23.5 C-1.98260498 23.36940186 -3.27770996 23.23880371 -4.61206055 23.10424805 C-5.81644775 22.97703369 -7.02083496 22.84981934 -8.26171875 22.71875 C-9.34412842 22.60466797 -10.42653809 22.49058594 -11.54174805 22.37304688 C-14 22 -14 22 -15 21 C-15.08685603 19.43827255 -15.10702219 17.87270656 -15.09765625 16.30859375 C-15.09443359 15.36435547 -15.09121094 14.42011719 -15.08789062 13.44726562 C-15.07951172 12.45404297 -15.07113281 11.46082031 -15.0625 10.4375 C-15.05798828 9.44041016 -15.05347656 8.44332031 -15.04882812 7.41601562 C-15.03700007 4.94395151 -15.02051849 2.47200482 -15 0 C-9.6045365 -0.85191529 -5.43178696 -0.85923179 0 0 Z " fill="#856400" transform="translate(304,273)"/>
<path d="M0 0 C0.9792041 0.06509766 1.9584082 0.13019531 2.96728516 0.19726562 C5.1148968 0.34295703 7.26172204 0.50059806 9.40771484 0.66845703 C13.22428973 0.95935934 17.04286777 1.20051767 20.86328125 1.43359375 C26.01125655 1.75564321 31.15899922 2.08064019 36.3046875 2.4375 C37.36800293 2.5096875 38.43131836 2.581875 39.52685547 2.65625 C41.9375 2.9375 41.9375 2.9375 42.9375 3.9375 C43.08904969 6.0795966 43.15927745 8.22773462 43.1875 10.375 C43.21328125 11.54933594 43.2390625 12.72367187 43.265625 13.93359375 C43.15734375 14.92488281 43.0490625 15.91617187 42.9375 16.9375 C38.97720791 19.57769473 35.59026886 19.19418036 31 19.125 C30.12424316 19.11927979 29.24848633 19.11355957 28.34619141 19.10766602 C20.95705603 19.02802185 13.58463981 18.68537944 6.21118164 18.20581055 C1.94791625 17.78336435 1.94791625 17.78336435 -2.0625 18.9375 C-4.43652501 19.00866382 -6.81250677 19.02159085 -9.1875 19 C-10.46882812 18.99097656 -11.75015625 18.98195313 -13.0703125 18.97265625 C-14.55144531 18.95525391 -14.55144531 18.95525391 -16.0625 18.9375 C-16.22521111 16.71076829 -16.34121548 14.48059147 -16.4375 12.25 C-16.50710937 11.00863281 -16.57671875 9.76726562 -16.6484375 8.48828125 C-16.0625 4.9375 -16.0625 4.9375 -13.66796875 1.9765625 C-9.37600138 -1.07375507 -5.03275686 -0.44163767 0 0 Z " fill="#7B7B7B" transform="translate(250.0625,363.0625)"/>
<path d="M0 0 C0.33 0 0.66 0 1 0 C1 7.26 1 14.52 1 22 C-6.62865978 26.00993655 -11.50620504 27.86089651 -20 26 C-19.34 25.34 -18.68 24.68 -18 24 C-19.02472412 23.94465088 -20.04944824 23.88930176 -21.10522461 23.83227539 C-24.89423139 23.62638264 -28.68287398 23.41435583 -32.47143555 23.20043945 C-34.11359477 23.10858519 -35.75584889 23.01841195 -37.39819336 22.92993164 C-39.75401139 22.80272457 -42.10942594 22.66954596 -44.46484375 22.53515625 C-45.57266457 22.47727684 -45.57266457 22.47727684 -46.7028656 22.41822815 C-51.88612829 22.11387171 -51.88612829 22.11387171 -53 21 C-53.15154969 18.8579034 -53.22177745 16.70976538 -53.25 14.5625 C-53.27578125 13.38816406 -53.3015625 12.21382813 -53.328125 11.00390625 C-53.21984375 10.01261719 -53.1115625 9.02132813 -53 8 C-41.64188817 0.42792545 -13.12875716 6.97868163 0 9 C0 6.03 0 3.06 0 0 Z " fill="#7C7C7C" transform="translate(366,363)"/>
<path d="M0 0 C3.3 0.66 6.6 1.32 10 2 C10.495 7.445 10.495 7.445 11 13 C15.95 13.99 15.95 13.99 21 15 C21 20.28 21 25.56 21 31 C11.31686265 30.44050158 1.89378609 29.38164368 -7.6730957 27.84326172 C-9.85448583 27.49326348 -12.03741013 27.15431126 -14.22070312 26.81640625 C-24.86164932 25.13835068 -24.86164932 25.13835068 -26 24 C-26.04063832 22.33382885 -26.042721 20.66611905 -26 19 C-24.741875 18.979375 -23.48375 18.95875 -22.1875 18.9375 C-21.47980469 18.92589844 -20.77210938 18.91429688 -20.04296875 18.90234375 C-18 19 -18 19 -15 20 C-14.01 16.7 -13.02 13.4 -12 10 C-10.55625 10.061875 -9.1125 10.12375 -7.625 10.1875 C-5.20725073 10.36362818 -5.20725073 10.36362818 -3 10 C-0.70366176 6.55549263 -0.45983515 4.06187717 0 0 Z " fill="#7A7A7A" transform="translate(239,68)"/>
<path d="M0 0 C8.67308556 0.94615479 17.33572346 1.97666025 26 3 C26 11.25 26 19.5 26 28 C24.15792969 27.91621094 22.31585938 27.83242187 20.41796875 27.74609375 C18.00782504 27.64293585 15.59766807 27.54008729 13.1875 27.4375 C11.36508789 27.35338867 11.36508789 27.35338867 9.50585938 27.26757812 C8.34248047 27.21923828 7.17910156 27.17089844 5.98046875 27.12109375 C4.37014771 27.05039673 4.37014771 27.05039673 2.72729492 26.97827148 C-0.09579267 26.86045325 -0.09579267 26.86045325 -3 28 C-3.08736736 24.27098186 -3.14051482 20.54222835 -3.1875 16.8125 C-3.21263672 15.75740234 -3.23777344 14.70230469 -3.26367188 13.61523438 C-3.27333984 12.59365234 -3.28300781 11.57207031 -3.29296875 10.51953125 C-3.31653442 9.11344604 -3.31653442 9.11344604 -3.34057617 7.67895508 C-2.93729071 4.50673189 -1.79632118 2.61264246 0 0 Z " fill="#9C7A7A" transform="translate(318,191)"/>
<path d="M0 0 C14.42529141 0.65569506 28.67025491 2.24328001 43 4 C43.39807148 14.15082276 43.39807148 14.15082276 41 18 C38.25 20.23828125 38.25 20.23828125 35 22.3125 C33.9275 23.00988281 32.855 23.70726562 31.75 24.42578125 C29 26 29 26 27 26 C26.67 23.36 26.34 20.72 26 18 C24.19015625 17.90912109 24.19015625 17.90912109 22.34375 17.81640625 C20.72915876 17.73192182 19.11457586 17.64727789 17.5 17.5625 C16.70851563 17.52318359 15.91703125 17.48386719 15.1015625 17.44335938 C10.02614559 17.17294782 5.03624555 16.6872858 0 16 C0 10.72 0 5.44 0 0 Z " fill="#230000" transform="translate(339,278)"/>
<path d="M0 0 C1.66421997 0.18852539 1.66421997 0.18852539 3.36206055 0.38085938 C4.6145459 0.50847656 5.86703125 0.63609375 7.1574707 0.76757812 C7.82441956 0.84347168 8.49136841 0.91936523 9.17852783 0.99755859 C11.97332407 1.30407241 14.77255585 1.53301485 17.57443237 1.76416016 C20.46399344 2.00446242 23.35151666 2.26571788 26.23925781 2.52685547 C28.47194911 2.72782001 30.70507123 2.92347502 32.93823242 3.11914062 C34.36860005 3.24772377 35.79893975 3.37661796 37.22924805 3.50585938 C39.145802 3.67698242 39.145802 3.67698242 41.10107422 3.8515625 C44.2487793 4.22460938 44.2487793 4.22460938 47.2487793 5.22460938 C47.2487793 7.86460937 47.2487793 10.50460937 47.2487793 13.22460938 C47.0940918 12.26554687 47.0940918 12.26554687 46.9362793 11.28710938 C46.7094043 10.60648437 46.4825293 9.92585938 46.2487793 9.22460938 C43.35691143 7.8915624 43.35691143 7.8915624 41.0612793 9.16210938 C40.4631543 9.51273437 39.8650293 9.86335938 39.2487793 10.22460938 C39.2487793 9.56460937 39.2487793 8.90460938 39.2487793 8.22460938 C31.44697851 3.81255652 21.23075949 5.14321156 12.53393555 5.28710938 C9.2487793 5.22460938 9.2487793 5.22460938 7.30737305 4.72460938 C4.04521185 3.9322818 0.60578372 4.22460938 -2.7512207 4.22460938 C-2.4212207 11.15460938 -2.0912207 18.08460938 -1.7512207 25.22460938 C1.21104492 25.50175781 4.17331055 25.77890625 7.2253418 26.06445312 C10.10478525 26.33534032 12.98415818 26.60696579 15.86352539 26.87866211 C17.8595466 27.06660863 19.85563986 27.25379155 21.85180664 27.44018555 C24.72651293 27.70874929 27.60094606 27.98008809 30.4753418 28.25195312 C31.80693832 28.37545387 31.80693832 28.37545387 33.16543579 28.50144958 C37.56377181 28.92016932 41.89912496 29.42499481 46.2487793 30.22460938 C40.58536716 36.08331158 40.58536716 36.08331158 37.11026001 36.45068359 C31.20962432 36.3385561 25.39042976 35.97321691 19.5222168 35.34960938 C18.21167831 35.21643311 18.21167831 35.21643311 16.87466431 35.08056641 C14.12386206 34.79995345 11.37383764 34.51241179 8.6237793 34.22460938 C6.74231622 34.03143935 4.86080611 33.83872697 2.97924805 33.64648438 C-1.59813492 33.17780649 -6.17483465 32.70291963 -10.7512207 32.22460938 C-11.06507897 26.23805353 -11.22469273 22.30456222 -7.7512207 17.22460938 C-7.10315941 13.91544638 -6.74803915 10.63344225 -6.3762207 7.28320312 C-5.50725764 3.03071511 -4.64038106 0.37884023 0 0 Z " fill="#312B03" transform="translate(291.751220703125,268.775390625)"/>
<path d="M0 0 C2.97 0.495 2.97 0.495 6 1 C6 4.63 6 8.26 6 12 C8.83203125 12.22786458 11.6640625 12.45572917 14.49609375 12.68359375 C17 13 17 13 18 14 C18.14257189 17.33618231 18.04228157 20.65975606 18 24 C21.63 24.66 25.26 25.32 29 26 C29 27.65 29 29.3 29 31 C20.38300866 30.40396692 11.9056369 29.34233511 3.375 28 C1.62123047 27.73316406 1.62123047 27.73316406 -0.16796875 27.4609375 C-8.74017857 26.12991071 -8.74017857 26.12991071 -11 25 C-11 19.72 -11 14.44 -11 9 C-8.69 9 -6.38 9 -4 9 C-2 8 -2 8 -1 6 C-0.2730774 2.89160979 -0.2730774 2.89160979 0 0 Z " fill="#7A7A7A" transform="translate(391,93)"/>
<path d="M0 0 C0.90492188 0.02320313 1.80984375 0.04640625 2.7421875 0.0703125 C4.10730469 0.09738281 4.10730469 0.09738281 5.5 0.125 C6.19867188 0.14820313 6.89734375 0.17140625 7.6171875 0.1953125 C7.6171875 2.1753125 7.6171875 4.1553125 7.6171875 6.1953125 C8.26977539 6.22036865 8.92236328 6.2454248 9.59472656 6.27124023 C23.94059263 6.82522683 38.2803453 7.44242805 52.6171875 8.1953125 C52.6171875 8.5253125 52.6171875 8.8553125 52.6171875 9.1953125 C50.6371875 9.1953125 48.6571875 9.1953125 46.6171875 9.1953125 C46.6171875 11.5053125 46.6171875 13.8153125 46.6171875 16.1953125 C45.2971875 16.5253125 43.9771875 16.8553125 42.6171875 17.1953125 C42.6171875 17.8553125 42.6171875 18.5153125 42.6171875 19.1953125 C41.9571875 18.8653125 41.2971875 18.5353125 40.6171875 18.1953125 C39.16919066 18.02134473 37.71468678 17.89990044 36.25927734 17.80639648 C35.35849457 17.74640976 34.45771179 17.68642303 33.52963257 17.62461853 C32.06863632 17.53392845 32.06863632 17.53392845 30.578125 17.44140625 C29.58213287 17.37623306 28.58614075 17.31105988 27.55996704 17.24391174 C24.37095393 17.03617173 21.18159312 16.83442781 17.9921875 16.6328125 C15.83330782 16.49323255 13.67445326 16.3532636 11.515625 16.21289062 C6.21642924 15.86917937 0.91693558 15.53039353 -4.3828125 15.1953125 C-4.43667879 13.07058674 -4.47554321 10.94547598 -4.5078125 8.8203125 C-4.53101563 7.63695312 -4.55421875 6.45359375 -4.578125 5.234375 C-4.34015889 1.53162232 -3.81428942 0.31264667 0 0 Z " fill="#7A7A7A" transform="translate(220.3828125,379.8046875)"/>
<path d="M0 0 C1.18851562 0.00902344 2.37703125 0.01804687 3.6015625 0.02734375 C4.51679688 0.03894531 5.43203125 0.05054688 6.375 0.0625 C6.375 2.0425 6.375 4.0225 6.375 6.0625 C7.32117188 6.03929687 8.26734375 6.01609375 9.2421875 5.9921875 C19.75772725 5.82015413 29.95231762 6.71141154 40.375 8.0625 C40.375 10.3725 40.375 12.6825 40.375 15.0625 C35.97046727 17.29899569 32.09303009 17.18739574 27.29296875 16.85546875 C26.51995926 16.81061844 25.74694977 16.76576813 24.95051575 16.71955872 C22.48706644 16.57367095 20.02495281 16.4117529 17.5625 16.25 C15.91867827 16.15200885 14.27479803 16.05499393 12.63085938 15.95898438 C11.03900984 15.86284718 9.44721084 15.76586887 7.85546875 15.66796875 C7.12498825 15.62310837 6.39450775 15.57824799 5.64189148 15.5320282 C0.85629807 15.21647087 -3.87079199 14.69570311 -8.625 14.0625 C-8.625 9.7725 -8.625 5.4825 -8.625 1.0625 C-5.74084117 -0.37957941 -3.20778472 -0.03144887 0 0 Z " fill="#7B7B7B" transform="translate(295.625,384.9375)"/>
<path d="M0 0 C4.18001995 -0.08196118 7.92212105 0.10554296 12 1 C12.0292427 5.33331896 12.04688017 9.66661221 12.0625 14 C12.07087891 15.22074219 12.07925781 16.44148438 12.08789062 17.69921875 C12.10464844 23.89960932 11.97272146 29.8726207 11 36 C6.81998005 36.08196118 3.07787895 35.89445704 -1 35 C-1.02940464 31.04168267 -1.04693328 27.08339403 -1.0625 23.125 C-1.07087891 22.01640625 -1.07925781 20.9078125 -1.08789062 19.765625 C-1.10746751 13.10948511 -0.82879778 6.6060883 0 0 Z " fill="#070706" transform="translate(253,128)"/>
<path d="M0 0 C0.7734375 0.495 0.7734375 0.495 1.5625 1 C5.77088462 2.72651677 9.74199462 2.41933513 14 1 C15.32 1.33 16.64 1.66 18 2 C18 7.28 18 12.56 18 18 C15.14576808 18.02718316 12.29179985 18.04692705 9.4375 18.0625 C8.23770508 18.07506836 8.23770508 18.07506836 7.01367188 18.08789062 C6.22412109 18.09111328 5.43457031 18.09433594 4.62109375 18.09765625 C3.54492798 18.10551147 3.54492798 18.10551147 2.44702148 18.11352539 C-0.7203787 17.96657926 -3.86106121 17.44841983 -7 17 C-7 11.72 -7 6.44 -7 1 C-5.02 1 -3.04 1 -1 1 C-0.67 0.67 -0.34 0.34 0 0 Z " fill="#8B8A0D" transform="translate(308,279)"/>
<path d="M0 0 C3.63 0.33 7.26 0.66 11 1 C11.81339454 8.76887854 12.12760567 16.3798281 12.0625 24.1875 C12.05798828 25.23486328 12.05347656 26.28222656 12.04882812 27.36132812 C12.03720124 29.90761536 12.02086281 32.4537746 12 35 C8.13013042 35.07442057 4.7264085 35.04702186 1 34 C0.31583529 22.65019611 -0.15298709 11.37204047 0 0 Z " fill="#060605" transform="translate(386,147)"/>
<path d="M0 0 C21.45 2.64 42.9 5.28 65 8 C61 13 61 13 58.76220703 13.37158203 C57.93575684 13.25153809 57.10930664 13.13149414 56.2578125 13.0078125 C55.29149902 12.88188721 54.32518555 12.75596191 53.32958984 12.6262207 C52.2720752 12.46081787 51.21456055 12.29541504 50.125 12.125 C49.01979004 11.97442139 47.91458008 11.82384277 46.77587891 11.66870117 C44.27813859 11.32708502 41.78195016 10.97400106 39.28710938 10.61181641 C34.47360471 9.91615213 29.65148265 9.29103726 24.828125 8.66796875 C15.54912503 7.46709469 6.27379508 6.24038297 -3 5 C-2.01 3.35 -1.02 1.7 0 0 Z " fill="#2F2E21" transform="translate(225,172)"/>
<path d="M0 0 C1.66421997 0.18852539 1.66421997 0.18852539 3.36206055 0.38085938 C4.6145459 0.50847656 5.86703125 0.63609375 7.1574707 0.76757812 C7.82441956 0.84347168 8.49136841 0.91936523 9.17852783 0.99755859 C11.97332407 1.30407241 14.77255585 1.53301485 17.57443237 1.76416016 C20.46399344 2.00446242 23.35151666 2.26571788 26.23925781 2.52685547 C28.47194911 2.72782001 30.70507123 2.92347502 32.93823242 3.11914062 C34.36860005 3.24772377 35.79893975 3.37661796 37.22924805 3.50585938 C39.145802 3.67698242 39.145802 3.67698242 41.10107422 3.8515625 C44.2487793 4.22460938 44.2487793 4.22460938 47.2487793 5.22460938 C47.2487793 7.86460937 47.2487793 10.50460937 47.2487793 13.22460938 C47.0940918 12.26554687 47.0940918 12.26554687 46.9362793 11.28710938 C46.7094043 10.60648437 46.4825293 9.92585938 46.2487793 9.22460938 C43.35691143 7.8915624 43.35691143 7.8915624 41.0612793 9.16210938 C40.4631543 9.51273437 39.8650293 9.86335938 39.2487793 10.22460938 C39.2487793 9.56460937 39.2487793 8.90460938 39.2487793 8.22460938 C31.44697851 3.81255652 21.23075949 5.14321156 12.53393555 5.28710938 C9.2487793 5.22460938 9.2487793 5.22460938 7.30737305 4.72460938 C3.97407757 3.9150044 0.66983755 4.16759174 -2.7512207 4.22460938 C-2.6586499 5.19285645 -2.6586499 5.19285645 -2.56420898 6.18066406 C-2.30244289 9.11012692 -2.08889352 12.04119116 -1.8762207 14.97460938 C-1.77825195 15.99039062 -1.6802832 17.00617188 -1.5793457 18.05273438 C-1.39272538 20.88936334 -1.29406056 23.4174857 -1.7512207 26.22460938 C-4.86879269 29.22928879 -6.42307981 30.22460938 -10.7512207 30.22460938 C-11.12690105 22.83622914 -11.12690105 22.83622914 -9.30200195 19.86523438 C-6.95893582 15.87552983 -6.87972948 11.82002696 -6.3762207 7.28320312 C-5.50725764 3.03071511 -4.64038106 0.37884023 0 0 Z " fill="#402E01" transform="translate(291.751220703125,268.775390625)"/>
<path d="M0 0 C0.86351074 0.11593506 1.72702148 0.23187012 2.61669922 0.35131836 C4.10967529 0.53827271 4.10967529 0.53827271 5.6328125 0.72900391 C7.26065674 0.95777222 7.26065674 0.95777222 8.92138672 1.19116211 C11.25470745 1.49073946 13.58804147 1.79021327 15.92138672 2.08959961 C17.17822266 2.25685547 18.43505859 2.42411133 19.72998047 2.59643555 C24.1022788 3.17471245 28.47989466 3.70538328 32.85888672 4.23022461 C33.61378387 4.32071579 34.36868103 4.41120697 35.14645386 4.50444031 C36.65684816 4.68534351 38.16725457 4.8661457 39.67767334 5.04684448 C43.28291966 5.47958977 46.88732921 5.91915541 50.49169922 6.35913086 C51.70873535 6.50761475 52.92577148 6.65609863 54.1796875 6.80908203 C55.04319824 6.91454346 55.90670898 7.02000488 56.79638672 7.12866211 C57.12638672 5.80866211 57.45638672 4.48866211 57.79638672 3.12866211 C58.04638672 5.44116211 58.04638672 5.44116211 57.79638672 8.12866211 C55.76682826 10.06466368 54.40302575 11.03519028 51.61157227 11.46530151 C45.22398066 11.27225994 38.94648583 10.70281811 32.60888672 9.88647461 C31.07240479 9.69382523 31.07240479 9.69382523 29.50488281 9.49728394 C27.3599505 9.22636214 25.2154198 8.95224298 23.07128906 8.67504883 C19.77912319 8.25144078 16.48522394 7.84384553 13.19091797 7.43725586 C11.10095172 7.17128961 9.01110323 6.90439601 6.92138672 6.63647461 C5.93501221 6.5155545 4.9486377 6.3946344 3.93237305 6.27005005 C2.569552 6.09008987 2.569552 6.09008987 1.17919922 5.90649414 C0.37885254 5.80434601 -0.42149414 5.70219788 -1.24609375 5.59695435 C-3.20361328 5.12866211 -3.20361328 5.12866211 -5.20361328 3.12866211 C-3.51748874 0.99920014 -2.7711618 0.1617995 0 0 Z " fill="#353425" transform="translate(365.20361328125,189.871337890625)"/>
<path d="M0 0 C1.36511719 0.29197266 1.36511719 0.29197266 2.7578125 0.58984375 C3.45648438 0.74582031 4.15515625 0.90179688 4.875 1.0625 C4.875 0.4025 4.875 -0.2575 4.875 -0.9375 C6.195 -0.9375 7.515 -0.9375 8.875 -0.9375 C9.77738747 1.76966242 9.99351302 3.30026768 9.97265625 6.07421875 C9.97015869 6.75701904 9.96766113 7.43981934 9.96508789 8.14331055 C9.95598389 9.00351807 9.94687988 9.86372559 9.9375 10.75 C9.916875 13.493125 9.89625 16.23625 9.875 19.0625 C3.275 18.7325 -3.325 18.4025 -10.125 18.0625 C-10.125 17.7325 -10.125 17.4025 -10.125 17.0625 C-7.815 17.0625 -5.505 17.0625 -3.125 17.0625 C-3.125 11.7825 -3.125 6.5025 -3.125 1.0625 C-4.445 0.7325 -5.765 0.4025 -7.125 0.0625 C-4.4030754 -1.2984623 -2.9418043 -0.64116248 0 0 Z " fill="#8C6D01" transform="translate(329.125,279.9375)"/>
<path d="M0 0 C0 0.33 0 0.66 0 1 C-1.65 1 -3.3 1 -5 1 C-4.99111755 1.58215775 -4.98223511 2.16431549 -4.9730835 2.76411438 C-4.8846981 8.81456702 -4.82430265 14.8648368 -4.78027344 20.91577148 C-4.76013834 23.17496182 -4.73282811 25.43409992 -4.69824219 27.69311523 C-4.64980838 30.93746821 -4.62705024 34.18113317 -4.609375 37.42578125 C-4.58872986 38.43836502 -4.56808472 39.45094879 -4.54681396 40.49421692 C-4.54651184 41.43496567 -4.54620972 42.37571442 -4.54589844 43.3449707 C-4.53701599 44.17325882 -4.52813354 45.00154694 -4.51898193 45.85493469 C-5 48 -5 48 -7.02838135 49.79093933 C-8.00433258 50.38942436 -8.00433258 50.38942436 -9 51 C-9.32596578 42.56130082 -9.62274433 34.12210446 -9.88427734 25.68115234 C-9.95508632 23.4287097 -10.02994254 21.176384 -10.11181641 18.92431641 C-10.19926467 16.42867757 -10.26118903 13.93409933 -10.3125 11.4375 C-10.34214844 10.72609863 -10.37179687 10.01469727 -10.40234375 9.28173828 C-10.44201151 5.94220845 -10.19813077 4.26715697 -8.18359375 1.55078125 C-5.33376222 -0.47315993 -3.41733533 -0.31066685 0 0 Z " fill="#757454" transform="translate(368,143)"/>
<path d="M0 0 C0.33 0.66 0.66 1.32 1 2 C0.34 1.67 -0.32 1.34 -1 1 C-0.67 0.67 -0.34 0.34 0 0 Z M-3 2 C-1 3 -1 3 -1 3 Z M-5 3 C-4.01 3.495 -4.01 3.495 -3 4 C-3.99 4.495 -3.99 4.495 -5 5 C-5 4.34 -5 3.68 -5 3 Z M-8 7 C-7.21625 7.185625 -6.4325 7.37125 -5.625 7.5625 C-3.02910225 8.25962266 -3.02910225 8.25962266 -1 7 C-1.33 7.99 -1.66 8.98 -2 10 C-2.66 10 -3.32 10 -4 10 C-4.24363281 10.56203125 -4.48726562 11.1240625 -4.73828125 11.703125 C-6.24180936 14.44019785 -8.06699748 16.45795941 -10.1875 18.75 C-13.76175368 22.6418368 -17.25663268 26.58300032 -20.6875 30.6015625 C-21.120625 31.06304687 -21.55375 31.52453125 -22 32 C-22.33 32 -22.66 32 -23 32 C-23.08082094 30.04233719 -23.13910778 28.08373272 -23.1875 26.125 C-23.22230469 25.03445313 -23.25710937 23.94390625 -23.29296875 22.8203125 C-23.19628906 21.88960938 -23.09960938 20.95890625 -23 20 C-20 18 -20 18 -16 18 C-15.73445312 17.41734375 -15.46890625 16.8346875 -15.1953125 16.234375 C-13.96697004 13.93825772 -12.59685061 12.19643982 -10.875 10.25 C-10.33617187 9.63640625 -9.79734375 9.0228125 -9.2421875 8.390625 C-8.62730469 7.70226562 -8.62730469 7.70226562 -8 7 Z " fill="#380000" transform="translate(234,274)"/>
<path d="M0 0 C0.99 0.33 1.98 0.66 3 1 C2.34 1 1.68 1 1 1 C0.9498877 2.18964355 0.89977539 3.37928711 0.84814453 4.60498047 C0.65841755 9.05961063 0.45837645 13.51373029 0.25537109 17.96777344 C0.16926538 19.88789851 0.08587933 21.80814771 0.00537109 23.72851562 C-0.11148823 26.50428525 -0.2384381 29.27944688 -0.3671875 32.0546875 C-0.40061249 32.8998996 -0.43403748 33.74511169 -0.46847534 34.61593628 C-0.7523911 40.45287439 -1.23368264 46.40070245 -3 52 C-3.99 52.495 -3.99 52.495 -5 53 C-4.88056589 47.93192303 -4.75625789 42.86399597 -4.62768555 37.79614258 C-4.58472143 36.07677347 -4.54302463 34.35737215 -4.50268555 32.63793945 C-3.84823627 4.852124 -3.84823627 4.852124 0 0 Z " fill="#888866" transform="translate(227,123)"/>
<path d="M0 0 C1.29945577 2.59891154 1.0223077 4.32666656 0.87890625 7.2265625 C0.83056641 8.2578125 0.78222656 9.2890625 0.73242188 10.3515625 C0.67634766 11.43179688 0.62027344 12.51203125 0.5625 13.625 C0.51029297 14.71296875 0.45808594 15.8009375 0.40429688 16.921875 C0.27437225 19.6148581 0.13939838 22.30749336 0 25 C0.99 24.34 1.98 23.68 3 23 C4.97363281 22.84887695 4.97363281 22.84887695 7.203125 22.98828125 C8.01910156 23.03533203 8.83507812 23.08238281 9.67578125 23.13085938 C10.52527344 23.19080078 11.37476563 23.25074219 12.25 23.3125 C13.50103516 23.38500977 13.50103516 23.38500977 14.77734375 23.45898438 C19.564211 23.75581523 24.26316209 24.25106752 29 25 C26.57456582 28.85933866 26.57456582 28.85933866 24.1171875 29.4609375 C15.69186462 29.13801572 7.35631411 28.08573919 -1 27 C-1.02886537 22.68751391 -1.04675255 18.37505238 -1.0625 14.0625 C-1.07087891 12.83080078 -1.07925781 11.59910156 -1.08789062 10.33007812 C-1.09111328 9.16025391 -1.09433594 7.99042969 -1.09765625 6.78515625 C-1.10289307 5.70113525 -1.10812988 4.61711426 -1.11352539 3.50024414 C-1 1 -1 1 0 0 Z " fill="#3F2C2C" transform="translate(315,194)"/>
<path d="M0 0 C2.68777802 -0.0544207 5.37443212 -0.09387266 8.0625 -0.125 C8.81466797 -0.14175781 9.56683594 -0.15851563 10.34179688 -0.17578125 C16.98336365 -0.23328399 22.81210408 0.43465159 28 5 C29.32 4.34 30.64 3.68 32 3 C32 3.66 32 4.32 32 5 C32.66 5.33 33.32 5.66 34 6 C33.34 6.33 32.68 6.66 32 7 C31.34 6.67 30.68 6.34 30 6 C30 6.66 30 7.32 30 8 C27.95775363 7.88485851 25.91619841 7.75742674 23.875 7.625 C22.73804688 7.55539062 21.60109375 7.48578125 20.4296875 7.4140625 C14.87220328 6.74311338 9.96054584 4.62263348 4.83203125 2.48828125 C2.79051292 1.76434029 2.79051292 1.76434029 0 3 C0 2.01 0 1.02 0 0 Z " fill="#6A4E00" transform="translate(304,273)"/>
<path d="M0 0 C0.77988281 0.3403125 1.55976563 0.680625 2.36328125 1.03125 C5.27819279 2.10221009 6.13100223 1.79144766 9 1 C9.66 1.66 10.32 2.32 11 3 C11.33 3 11.66 3 12 3 C12 5.97 12 8.94 12 12 C10.18757948 12.02687279 8.37504767 12.04633715 6.5625 12.0625 C5.55316406 12.07410156 4.54382813 12.08570313 3.50390625 12.09765625 C1 12 1 12 0 11 C-0.07226502 9.14712498 -0.0838122 7.29166122 -0.0625 5.4375 C-0.05347656 4.42558594 -0.04445313 3.41367187 -0.03515625 2.37109375 C-0.02355469 1.58863281 -0.01195312 0.80617188 0 0 Z " fill="#8E6C00" transform="translate(289,283)"/>
<path d="M0 0 C3.63 0.33 7.26 0.66 11 1 C11 4.3 11 7.6 11 11 C7.37 10.67 3.74 10.34 0 10 C0 6.7 0 3.4 0 0 Z " fill="#1C1C1C" transform="translate(402,90)"/>
<path d="M0 0 C3.1875 -0.3125 3.1875 -0.3125 6 0 C6 0.33 6 0.66 6 1 C4.35 1 2.7 1 1 1 C0.67 8.92 0.34 16.84 0 25 C1.32 25.33 2.64 25.66 4 26 C1.69 26.66 -0.62 27.32 -3 28 C-3.08736736 24.27098186 -3.14051482 20.54222835 -3.1875 16.8125 C-3.21263672 15.75740234 -3.23777344 14.70230469 -3.26367188 13.61523438 C-3.27333984 12.59365234 -3.28300781 11.57207031 -3.29296875 10.51953125 C-3.31653442 9.11344604 -3.31653442 9.11344604 -3.34057617 7.67895508 C-2.92869832 4.4391446 -1.99088973 2.57557804 0 0 Z " fill="#785958" transform="translate(318,191)"/>
<path d="M0 0 C0.99 0.33 1.98 0.66 3 1 C3.99 0.67 4.98 0.34 6 0 C7.73068354 0.68574254 9.45966689 1.38076039 11.1484375 2.1640625 C13.69992238 3.31599871 16.33403433 4.15469381 19 5 C18.01 6.485 18.01 6.485 17 8 C14.6171875 8.29296875 14.6171875 8.29296875 11.875 8.1875 C10.96492188 8.16042969 10.05484375 8.13335937 9.1171875 8.10546875 C8.41851562 8.07066406 7.71984375 8.03585937 7 8 C6.67 7.34 6.34 6.68 6 6 C4.7934375 6.2784375 4.7934375 6.2784375 3.5625 6.5625 C2.716875 6.706875 1.87125 6.85125 1 7 C0 6 0 6 -0.0625 2.9375 C-0.041875 1.968125 -0.02125 0.99875 0 0 Z " fill="#71710A" transform="translate(302,274)"/>
<path d="M0 0 C1.32 0 2.64 0 4 0 C4.90238747 2.70716242 5.11851302 4.23776768 5.09765625 7.01171875 C5.09443359 7.76904297 5.09121094 8.52636719 5.08789062 9.30664062 C5.07951172 10.09232422 5.07113281 10.87800781 5.0625 11.6875 C5.05798828 12.48478516 5.05347656 13.28207031 5.04882812 14.10351562 C5.0370585 16.06904257 5.01912348 18.03453085 5 20 C2.69 20 0.38 20 -2 20 C-2 19.67 -2 19.34 -2 19 C-0.02 19 1.96 19 4 19 C4 15.04 4 11.08 4 7 C2.35 7.33 0.7 7.66 -1 8 C-4.3125 7.0625 -4.3125 7.0625 -7 6 C-7 4.35 -7 2.7 -7 1 C-4.69 1.33 -2.38 1.66 0 2 C0 1.34 0 0.68 0 0 Z " fill="#7C5C00" transform="translate(334,279)"/>
<path d="M0 0 C0.66 1.32 1.32 2.64 2 4 C0.94921875 5.51953125 0.94921875 5.51953125 -1 7 C-4.35546875 7.07421875 -4.35546875 7.07421875 -8.1875 6.6875 C-10.09595703 6.50767578 -10.09595703 6.50767578 -12.04296875 6.32421875 C-13.50669922 6.16373047 -13.50669922 6.16373047 -15 6 C-11.87944407 -0.24111186 -6.09437412 -0.42030166 0 0 Z " fill="#2F2100" transform="translate(296,295)"/>
<path d="M0 0 C1.258125 -0.020625 2.51625 -0.04125 3.8125 -0.0625 C4.52019531 -0.07410156 5.22789062 -0.08570313 5.95703125 -0.09765625 C8 0 8 0 11 1 C11 1.66 11 2.32 11 3 C14.3 2.67 17.6 2.34 21 2 C21.33 3.32 21.66 4.64 22 6 C16.90711292 7.49790797 13.72240866 6.1127716 8.9453125 4.16015625 C8.24148438 3.88042969 7.53765625 3.60070312 6.8125 3.3125 C6.15894531 3.04050781 5.50539063 2.76851563 4.83203125 2.48828125 C2.79051292 1.76434029 2.79051292 1.76434029 0 3 C0 2.01 0 1.02 0 0 Z " fill="#5D5D09" transform="translate(304,273)"/>
<path d="M0 0 C3.63 0.33 7.26 0.66 11 1 C10.67 2.65 10.34 4.3 10 6 C6.18510326 7.46726798 3.70988378 6.43336419 0 5 C0 3.35 0 1.7 0 0 Z " fill="#0E0E0D" transform="translate(227,72)"/>
<path d="M0 0 C3.3 0.33 6.6 0.66 10 1 C11 5 11 5 10 7 C8.52031676 6.85950482 7.04125484 6.71245174 5.5625 6.5625 C4.73878906 6.48128906 3.91507813 6.40007812 3.06640625 6.31640625 C1 6 1 6 0 5 C0 3.35 0 1.7 0 0 Z " fill="#0B0B0B" transform="translate(214,81)"/>
<path d="M0 0 C0 1.32 0 2.64 0 4 C-0.66 4 -1.32 4 -2 4 C-2 4.66 -2 5.32 -2 6 C-3.65 5.67 -5.3 5.34 -7 5 C-7 4.34 -7 3.68 -7 3 C-8.65 3.66 -10.3 4.32 -12 5 C-12 3.35 -12 1.7 -12 0 C-3.42857143 -1.28571429 -3.42857143 -1.28571429 0 0 Z " fill="#705100" transform="translate(301,273)"/>
<path d="M0 0 C0.33 0 0.66 0 1 0 C1.65592853 8.59734889 2.13050653 17.18964046 2.25 25.8125 C2.27126953 26.58255371 2.29253906 27.35260742 2.31445312 28.14599609 C2.328125 30.33203125 2.328125 30.33203125 2 34 C1.01 34.99 0.02 35.98 -1 37 C-0.67 24.79 -0.34 12.58 0 0 Z " fill="#66664A" transform="translate(223,139)"/>
<path d="M0 0 C0.99 0.33 1.98 0.66 3 1 C2.34 1 1.68 1 1 1 C0.94465088 1.59014893 0.88930176 2.18029785 0.83227539 2.78833008 C0.57932313 5.46341208 0.320973 8.13794603 0.0625 10.8125 C-0.02451172 11.74126953 -0.11152344 12.67003906 -0.20117188 13.62695312 C-0.28818359 14.51962891 -0.37519531 15.41230469 -0.46484375 16.33203125 C-0.58267212 17.56530151 -0.58267212 17.56530151 -0.70288086 18.82348633 C-1 21 -1 21 -2 24 C-2.33 24 -2.66 24 -3 24 C-3.08115993 20.93696422 -3.14057409 17.87609185 -3.1875 14.8125 C-3.21263672 13.94818359 -3.23777344 13.08386719 -3.26367188 12.19335938 C-3.32026662 7.26961666 -3.18027571 4.03168811 0 0 Z " fill="#787859" transform="translate(227,123)"/>
<path d="M0 0 C0.33 0.99 0.66 1.98 1 3 C2.97536745 2.65213292 2.97536745 2.65213292 5 2 C5.33 1.34 5.66 0.68 6 0 C6.66 0 7.32 0 8 0 C7.68097587 5.26389811 4.60721435 8.44402449 1 12 C0.67 12 0.34 12 0 12 C0 8.04 0 4.08 0 0 Z " fill="#440B0B" transform="translate(211,294)"/>
<path d="M0 0 C4.95 0.99 4.95 0.99 10 2 C9.34 3.32 8.68 4.64 8 6 C4.71023192 7.09658936 3.28696233 6.79953138 0 6 C0 4.02 0 2.04 0 0 Z " fill="#0E0E0E" transform="translate(380,96)"/>
<path d="M0 0 C0.33 0 0.66 0 1 0 C1.33 4.29 1.66 8.58 2 13 C0.02 13.99 -1.96 14.98 -4 16 C-4.33 15.34 -4.66 14.68 -5 14 C-4.38655243 12.31301918 -3.70286303 10.65172812 -3 9 C-1.9668484 6.01088177 -0.98239944 3.00614229 0 0 Z " fill="#5F4300" transform="translate(288,282)"/>
<path d="M0 0 C2.75084547 0.11411804 5.50011947 0.24085949 8.25 0.375 C9.02730469 0.4059375 9.80460937 0.436875 10.60546875 0.46875 C17.72431144 0.83381886 17.72431144 0.83381886 21 3 C16.68523638 5.15738181 11.50845693 4.12711423 7 3 C4.32713687 2.91194056 1.67551348 2.95540811 -1 3 C-0.67 2.01 -0.34 1.02 0 0 Z " fill="#4A3400" transform="translate(290,270)"/>
<path d="M0 0 C2.97 0.33 5.94 0.66 9 1 C9 1.66 9 2.32 9 3 C7.5390625 4.2890625 7.5390625 4.2890625 5.625 5.625 C4.99851562 6.07101563 4.37203125 6.51703125 3.7265625 6.9765625 C2 8 2 8 0 8 C0 5.36 0 2.72 0 0 Z " fill="#0D0D0D" transform="translate(430,227)"/>
<path d="M0 0 C0 3.3 0 6.6 0 10 C-0.99 10 -1.98 10 -3 10 C-2.67 10.99 -2.34 11.98 -2 13 C-2.16011121 15.70123106 -2.60440608 18.31875231 -3 21 C-3.33 21 -3.66 21 -4 21 C-4.08086376 18.06195004 -4.1404283 15.12611925 -4.1875 12.1875 C-4.21263672 11.35412109 -4.23777344 10.52074219 -4.26367188 9.66210938 C-4.27333984 8.85966797 -4.28300781 8.05722656 -4.29296875 7.23046875 C-4.3086792 6.49207764 -4.32438965 5.75368652 -4.34057617 4.99291992 C-3.95360485 2.72851351 -2.66126154 0 0 0 Z " fill="#69694C" transform="translate(362,144)"/>
<path d="M0 0 C6.75 0.75 6.75 0.75 9 3 C5.09971775 5.60018816 1.52565431 5.15085514 -3 5 C-3.33 3.68 -3.66 2.36 -4 1 C-2.68 1.33 -1.36 1.66 0 2 C0 1.34 0 0.68 0 0 Z " fill="#7B7B0B" transform="translate(312,277)"/>
<path d="M0 0 C1.26457031 0.13921875 2.52914063 0.2784375 3.83203125 0.421875 C5.10433594 0.55078125 6.37664062 0.6796875 7.6875 0.8125 C8.66332031 0.93109375 9.63914062 1.0496875 10.64453125 1.171875 C10.64453125 1.501875 10.64453125 1.831875 10.64453125 2.171875 C6.35453125 2.171875 2.06453125 2.171875 -2.35546875 2.171875 C-3.03609375 4.3065625 -3.03609375 4.3065625 -3.73046875 6.484375 C-4.69491084 9.5092161 -5.56478302 11.4858464 -7.35546875 14.171875 C-7.26778627 12.5875433 -7.15959546 11.00433933 -7.04296875 9.421875 C-6.95595703 8.09929687 -6.95595703 8.09929687 -6.8671875 6.75 C-5.94110373 2.08423443 -4.9385469 0.25296399 0 0 Z " fill="#312100" transform="translate(292.35546875,268.828125)"/>
<path d="M0 0 C1.485 0.99 1.485 0.99 3 2 C3 3.32 3 4.64 3 6 C3.2981424 7.34164079 3.62243192 8.67851173 4 10 C2.68 10.99 1.36 11.98 0 13 C0 8.71 0 4.42 0 0 Z " fill="#69694B" transform="translate(359,181)"/>
<path d="M0 0 C5.52677733 -0.19392201 9.75614911 0.2520497 15 2 C14.34 2.66 13.68 3.32 13 4 C12.01 3.67 11.02 3.34 10 3 C8.60560336 2.93334624 7.20830125 2.91461801 5.8125 2.9375 C4.554375 2.958125 3.29625 2.97875 2 3 C2 2.34 2 1.68 2 1 C1.34 0.67 0.68 0.34 0 0 Z " fill="#4F4C07" transform="translate(313,273)"/>
<path d="M0 0 C0.33 0.99 0.66 1.98 1 3 C0.31292969 2.9278125 -0.37414062 2.855625 -1.08203125 2.78125 C-1.98308594 2.6884375 -2.88414062 2.595625 -3.8125 2.5 C-4.70582031 2.4071875 -5.59914063 2.314375 -6.51953125 2.21875 C-9.08305099 1.95607599 -9.08305099 1.95607599 -12 2 C-12 1.34 -12 0.68 -12 0 C-2.85714286 -1.37142857 -2.85714286 -1.37142857 0 0 Z " fill="#604500" transform="translate(301,273)"/>
<path d="M0 0 C2 2 2 2 2.125 4.625 C2.08375 5.40875 2.0425 6.1925 2 7 C1.896875 6.360625 1.79375 5.72125 1.6875 5.0625 C1.460625 4.381875 1.23375 3.70125 1 3 C-1.89186786 1.66695302 -1.89186786 1.66695302 -4.1875 2.9375 C-4.785625 3.288125 -5.38375 3.63875 -6 4 C-6 3.34 -6 2.68 -6 2 C-6.66 1.67 -7.32 1.34 -8 1 C-5.23749964 -0.38125018 -3.05268901 -0.19079306 0 0 Z " fill="#533A00" transform="translate(337,275)"/>
<path d="M0 0 C0.33 1.32 0.66 2.64 1 4 C-1.3125 4.6875 -1.3125 4.6875 -4 5 C-5.8125 3.5625 -5.8125 3.5625 -7 2 C-6.401875 1.855625 -5.80375 1.71125 -5.1875 1.5625 C-3.43849596 1.1127561 -1.71322977 0.57107659 0 0 Z " fill="#6B6B0A" transform="translate(325,275)"/>
<path d="M0 0 C0.625 1.8125 0.625 1.8125 1 4 C0.01 5.485 0.01 5.485 -1 7 C-1 6.34 -1 5.68 -1 5 C-2.32 5 -3.64 5 -5 5 C-5 4.34 -5 3.68 -5 3 C-4.01 3 -3.02 3 -2 3 C-2 2.34 -2 1.68 -2 1 C-1.34 0.67 -0.68 0.34 0 0 Z " fill="#7D5F01" transform="translate(301,276)"/>
<path d="M0 0 C1.45823212 -0.0270043 2.91660675 -0.04639787 4.375 -0.0625 C5.18710937 -0.07410156 5.99921875 -0.08570313 6.8359375 -0.09765625 C9 0 9 0 11 1 C11 1.66 11 2.32 11 3 C6.78121808 3.19622241 3.82989106 2.80230168 0 1 C0 0.67 0 0.34 0 0 Z " fill="#363606" transform="translate(307,271)"/>
<path d="M0 0 C6.15234375 0.5859375 6.15234375 0.5859375 8 1 C8.33 1.66 8.66 2.32 9 3 C5.7 3 2.4 3 -1 3 C-0.67 2.01 -0.34 1.02 0 0 Z " fill="#464507" transform="translate(302,271)"/>
</svg>
