<svg width="1200" height="630" viewBox="0 0 1200 630" xmlns="http://www.w3.org/2000/svg">
    <defs>
        <linearGradient id="backgroundGradient" x1="0%" y1="0%" x2="0%" y2="100%">
            <stop offset="0%" stop-color="#f8f9fa" />
            <stop offset="100%" stop-color="#e9ecef" />
        </linearGradient>
        <linearGradient id="accentGradient" x1="0%" y1="0%" x2="100%" y2="0%">
            <stop offset="0%" stop-color="#6c757d" />
            <stop offset="100%" stop-color="#495057" />
        </linearGradient>
        <filter id="textShadow" x="-20%" y="-20%" width="140%" height="140%">
            <feDropShadow dx="2" dy="3" stdDeviation="2" flood-color="rgba(0,0,0,0.2)"/>
        </filter>
        <pattern id="dots" x="0" y="0" width="40" height="40" patternUnits="userSpaceOnUse">
            <circle cx="20" cy="20" r="2" fill="rgba(108, 117, 125, 0.1)" />
        </pattern>
    </defs>
    <rect width="1200" height="630" fill="url(#backgroundGradient)"/>
    <rect width="1200" height="630" fill="url(#dots)"/>
		<image href="__PNG_IMAGE_DATA__" x="0" y="0" width="1200" height="630" opacity="0.05"/>
    <rect x="0" y="0" width="1200" height="8" fill="url(#accentGradient)"/>
    <rect x="0" y="0" width="8" height="630" fill="url(#accentGradient)"/>
    <rect x="1192" y="0" width="8" height="630" fill="url(#accentGradient)"/>
    <rect x="0" y="622" width="1200" height="8" fill="url(#accentGradient)"/>
    <circle cx="600" cy="150" r="3" fill="#6c757d" opacity="0.6"/>
    <circle cx="580" cy="160" r="2" fill="#6c757d" opacity="0.4"/>
    <circle cx="620" cy="160" r="2" fill="#6c757d" opacity="0.4"/>
    <polygon points="100,100 130,100 115,120" fill="none" stroke="#adb5bd" stroke-width="2" opacity="0.5"/>
    <polygon points="1070,500 1100,500 1085,520" fill="none" stroke="#adb5bd" stroke-width="2" opacity="0.5"/>
    <rect x="50" y="__Y_POS__" width="1100" height="__HEIGHT__"
          fill="rgba(255, 255, 255, 0.8)"
          stroke="#dee2e6"
          stroke-width="1"
          rx="8" ry="8"
          opacity="0.9"/>
					__TITLE_SVG__
    <rect x="950" y="560" width="240" height="40"
          fill="rgba(26, 26, 26, 0.05)"
          rx="4" ry="4"/>
    <text x="1070" y="585" text-anchor="middle"
        font-family="Noto Sans JP"
        font-size="18px" font-weight="600" fill="#495057"
        letter-spacing="1px">
        dnfolio
    </text>
    <line x1="50" y1="580" x2="200" y2="580" stroke="#adb5bd" stroke-width="2" opacity="0.6"/>
    <circle cx="50" cy="580" r="4" fill="#6c757d" opacity="0.6"/>
    <line x1="1000" y1="50" x2="1150" y2="50" stroke="#adb5bd" stroke-width="2" opacity="0.6"/>
    <circle cx="1150" cy="50" r="4" fill="#6c757d" opacity="0.6"/>
</svg>
